<?xml version="1.0" standalone="no"?><!DOCTYPE svg PUBLIC "-//W3C//DTD SVG 1.1//EN" "http://www.w3.org/Graphics/SVG/1.1/DTD/svg11.dtd"><svg class="icon" width="200px" height="200.00px" viewBox="0 0 1024 1024" version="1.1" xmlns="http://www.w3.org/2000/svg"><path fill="#cdcdcd" d="M510.5 632.3c-63.6 0-115.4-51.8-115.4-115.4s51.8-115.4 115.4-115.4 115.4 51.8 115.4 115.4-51.8 115.4-115.4 115.4z m0-176.5c-33.7 0-61.1 27.4-61.1 61.1s27.4 61.1 61.1 61.1 61.1-27.4 61.1-61.1-27.4-61.1-61.1-61.1zM328.4 707c-7.5 0-14.9-3-20.2-9-44.7-49.9-69.2-114.2-69.2-181.1s24.6-131.2 69.2-181.1c10-11.2 27.2-12.1 38.3-2.1 11.2 10 12.1 27.2 2.1 38.3-35.7 39.9-55.3 91.3-55.3 144.8s19.6 105 55.3 144.9c10 11.2 9 28.3-2.1 38.3-5.2 4.7-11.7 7-18.1 7zM692.6 707c-6.5 0-12.9-2.3-18.1-6.9-11.2-10-12.1-27.2-2.1-38.3 35.7-39.9 55.3-91.3 55.3-144.9s-19.6-105-55.3-144.9c-10-11.2-9-28.3 2.1-38.3 11.2-10 28.3-9.1 38.3 2.1 44.6 49.8 69.2 114.1 69.2 181.1 0 66.9-24.6 131.3-69.2 181.1-5.3 5.9-12.7 9-20.2 9z"  /><path fill="#cdcdcd" d="M219.3 788.4c-7.7 0-15.4-3.3-20.8-9.7-61.5-73.2-95.3-166.2-95.3-261.9 0-94.4 33-186.4 93-259.1 9.6-11.5 26.7-13.2 38.2-3.6 11.6 9.5 13.2 26.7 3.7 38.2-52 63-80.6 142.7-80.6 224.5 0 82.9 29.3 163.5 82.6 226.9 9.6 11.5 8.2 28.6-3.3 38.3-5.1 4.3-11.3 6.4-17.5 6.4zM803.8 785.8c-6.1 0-12.2-2-17.3-6.2-11.6-9.5-13.2-26.7-3.7-38.2 52-63 80.6-142.7 80.6-224.5 0-82.9-29.3-163.5-82.6-226.9-9.6-11.5-8.2-28.6 3.3-38.3 11.5-9.7 28.6-8.2 38.3 3.3 61.5 73.2 95.3 166.2 95.3 261.9 0 94.4-33 186.4-93 259.1-5.3 6.5-13 9.8-20.9 9.8z"  /></svg>