<?xml version="1.0" standalone="no"?><!DOCTYPE svg PUBLIC "-//W3C//DTD SVG 1.1//EN" "http://www.w3.org/Graphics/SVG/1.1/DTD/svg11.dtd"><svg class="icon" width="48px" height="48.00px" viewBox="0 0 1024 1024" version="1.1" xmlns="http://www.w3.org/2000/svg"><path fill="#323433" d="M221.3 97.81h581.4c85.76 0.35 155.2 69.76 155.55 155.49v326.26c-0.35 85.73-69.79 155.14-155.55 155.49H459.72a92.453 92.453 0 0 0-63.75 26.76L257 900.09v-74.56c-0.82-47.46-37.47-86.57-84.79-90.49-39.52-4.46-106.46-21.67-106.46-95.59V253.3c0.35-85.73 69.79-155.14 155.55-155.49m0-63.72C100.18 34.09 2 132.23 2 253.3v386.17a159.295 159.295 0 0 0 48.47 114.49c31 30.03 72.86 46.2 116.01 44.82 14.85 0.99 26.48 13.17 26.77 28.04v159.95c0 7.55 3.04 14.78 8.44 20.06 5.4 5.27 12.7 8.15 20.25 7.98a27.42 27.42 0 0 0 19.76-8.29l198.26-198.18c5.1-5.62 12.19-9.05 19.76-9.56H802.7c121.12 0 219.3-98.14 219.3-219.21V253.3c0-121.07-98.18-219.21-219.3-219.21H221.3zM814 305c0-22-18-40-40-40H255c-22 0-40 18-40 40s18 40 40 40h519c22 0 40-18 40-40z m0 204c0-22-18-40-40-40H255c-22 0-40 18-40 40s18 40 40 40h519c22 0 40-18 40-40z" /></svg>