<?xml version="1.0" standalone="no"?><!DOCTYPE svg PUBLIC "-//W3C//DTD SVG 1.1//EN" "http://www.w3.org/Graphics/SVG/1.1/DTD/svg11.dtd"><svg class="icon" width="48px" height="48.00px" viewBox="0 0 1024 1024" version="1.1" xmlns="http://www.w3.org/2000/svg"><path fill="#313131" d="M213.33632 42.666667a42.666667 42.666667 0 0 0-42.666667 42.666666v170.666667h85.333334V128h640v768H256.002987v-128H170.669653v170.666667a42.666667 42.666667 0 0 0 42.666667 42.666666h725.333333a42.666667 42.666667 0 0 0 42.666667-42.666666V85.333333a42.666667 42.666667 0 0 0-42.666667-42.666666H213.33632zM137.04832 366.506667l-2.816 2.389333-128 128a21.333333 21.333333 0 0 0-2.432 27.221333l2.432 2.986667 128 128a21.333333 21.333333 0 0 0 36.138667-11.434667L170.669653 640v-85.333333h362.666667a21.333333 21.333333 0 0 0 21.333333-21.333334v-42.666666a21.333333 21.333333 0 0 0-21.333333-21.333334H170.669653V384a21.333333 21.333333 0 0 0-33.621333-17.493333z" /></svg>