<?xml version="1.0" standalone="no"?><!DOCTYPE svg PUBLIC "-//W3C//DTD SVG 1.1//EN" "http://www.w3.org/Graphics/SVG/1.1/DTD/svg11.dtd"><svg class="icon" width="200px" height="200.00px" viewBox="0 0 1024 1024" version="1.1" xmlns="http://www.w3.org/2000/svg"><path fill="#313131" d="M226.8 608.1m-40.9 0a40.9 40.9 0 1 0 81.8 0 40.9 40.9 0 1 0-81.8 0Z"  /><path fill="#313131" d="M766.1 607.7m-40.9 0a40.9 40.9 0 1 0 81.8 0 40.9 40.9 0 1 0-81.8 0Z"  /><path fill="#313131" d="M495.7 803.8c-22.6 0-41 18.3-41 41v85.9c0 22.6 18.3 41 41 41 22.6 0 41-18.3 41-41v-85.9c0-22.7-18.3-41-41-41z"  /><path fill="#313131" d="M382.2 961.3c0 22.6 18.3 41 41 41h146.6c22.6 0 41-18.3 41-41 0-22.6-18.3-41-41-41H423.2c-22.6 0.1-41 18.4-41 41zM656.9 206.1c-22.6 0-41 18.3-41 41v311.7c0 22.6 18.3 41 41 41 22.6 0 41-18.3 41-41V247.1c0-22.6-18.3-41-41-41zM334.6 206.1c-22.6 0-41 18.3-41 41v311.7c0 22.6 18.3 41 41 41 22.6 0 41-18.3 41-41V247.1c0-22.6-18.4-41-41-41z"  /><path fill="#313131" d="M376.2 250.6c0-1.3-0.1-2.6-0.1-3.9 0-66.1 53.6-119.7 119.7-119.7s119.7 53.6 119.7 119.7v2.7l82.4-6.8C695.6 132.9 606 44.7 495.8 44.7c-111.6 0-202.1 90.5-202.1 202.1 0 5.2 0.2 10.4 0.6 15.5l81.9-11.7zM615.4 553.3v1.4c0 66.1-53.6 119.7-119.7 119.7S376 620.8 376 554.7c0-1.5 0-2.9 0.1-4.3h-82.5c0 1.4-0.1 2.9-0.1 4.3 0 111.6 90.5 202.1 202.1 202.1s202.1-90.5 202.1-202.1v-0.2l-82.3-1.2z"  /><path fill="#313131" d="M725.3 605C706 713.9 610.9 796.5 496.5 796.5c-114.5 0-209.6-82.7-228.8-191.7L186 612c23.1 150.8 153.3 266.3 310.6 266.3 157.4 0 287.7-115.7 310.6-266.6l-81.9-6.7z"  /></svg>