<?xml version="1.0" standalone="no"?><!DOCTYPE svg PUBLIC "-//W3C//DTD SVG 1.1//EN" "http://www.w3.org/Graphics/SVG/1.1/DTD/svg11.dtd"><svg class="icon" width="200px" height="200.00px" viewBox="0 0 1024 1024" version="1.1" xmlns="http://www.w3.org/2000/svg"><path fill="#cdcdcd" d="M512 498.5c-93.74 0-170-76.26-170-170s76.26-170 170-170 170 76.26 170 170-76.26 170-170 170z m0-300c-71.68 0-130 58.32-130 130s58.32 130 130 130 130-58.32 130-130-58.32-130-130-130zM856.8 765.5H167.2l-0.87-19.09c-0.17-3.73-3.47-92.21 58-156.93 40.52-42.64 98.82-64.45 173.28-64.84 41.34-0.21 70.43-0.34 91.55-0.4 3.22 0 9.79-0.07 22.83 0s19.55 0 22.77 0c21.12 0.06 50.21 0.19 91.55 0.4 74.46 0.39 132.76 22.2 173.28 64.84 61.51 64.72 58.21 153.2 58 156.93z m-649.61-40h609.62c-2.56-25.81-12-72.74-46.44-108.75-32.73-34.25-81.25-51.75-144.22-52.11-41.36-0.21-70.45-0.34-91.54-0.4h-0.16c-2.52 0-8.78-0.07-22.42 0s-20 0-22.48 0h-0.16c-21.09 0.06-50.18 0.19-91.54 0.4-63 0.33-111.49 17.86-144.22 52.11-34.4 36-43.88 82.92-46.44 108.75z" /></svg>