<?xml version="1.0" standalone="no"?><!DOCTYPE svg PUBLIC "-//W3C//DTD SVG 1.1//EN" "http://www.w3.org/Graphics/SVG/1.1/DTD/svg11.dtd"><svg class="icon" width="200px" height="200.00px" viewBox="0 0 1024 1024" version="1.1" xmlns="http://www.w3.org/2000/svg"><path fill="#d81e06" d="M846.1 528.4h-5.7c-5.3 0-9.7-4-10.2-9.3C812.8 358.9 676.8 233.6 512 233.6c-164.8 0-300.8 125.2-318.1 285.5-0.6 5.3-4.9 9.3-10.2 9.3H178c-27.6 0-49.9 22.4-49.9 49.9v162c0 27.6 22.4 49.9 49.9 49.9h78.5c27.6 0 49.9-22.4 49.9-49.9v-162c0-27.6-22.4-49.9-49.9-49.9h-1.2c-6.3 0-11.1-5.5-10.2-11.7C263.2 385.6 376 284.3 512 284.3s248.8 101.3 266.9 232.4c0.9 6.2-4 11.7-10.2 11.7h-1.2c-27.6 0-49.9 22.4-49.9 49.9v162c0 27.6 22.4 49.9 49.9 49.9H846c27.6 0 49.9-22.4 49.9-49.9v-162c0.1-27.5-22.3-49.9-49.8-49.9zM245.5 739.7h-56.6c-5.7 0-10.3-4.6-10.3-10.3V589.3c0-5.7 4.6-10.3 10.3-10.3h56.6c5.7 0 10.3 4.6 10.3 10.3v140.1c0 5.7-4.6 10.3-10.3 10.3z m589.6 0h-56.6c-5.7 0-10.3-4.6-10.3-10.3V589.3c0-5.7 4.6-10.3 10.3-10.3h56.6c5.7 0 10.3 4.6 10.3 10.3v140.1c0 5.7-4.6 10.3-10.3 10.3z" /></svg>