<?xml version="1.0" standalone="no"?><!DOCTYPE svg PUBLIC "-//W3C//DTD SVG 1.1//EN" "http://www.w3.org/Graphics/SVG/1.1/DTD/svg11.dtd"><svg class="icon" width="48px" height="48.00px" viewBox="0 0 1024 1024" version="1.1" xmlns="http://www.w3.org/2000/svg"><path fill="#333333" d="M944 286.37v451.262h-7.734c-25.601-37.406-68.615-62-117.266-62s-91.665 24.594-117.266 62H80V286.37h621.734c25.601 37.407 68.615 62 117.266 62s91.665-24.593 117.266-62H944m80-80H881c0 34.241-27.758 62-62 62-34.241 0-62-27.759-62-62H0v611.262h757c0-34.242 27.759-62 62-62 34.242 0 62 27.758 62 62h143V206.37zM429.732 346.534l-77.414 129.024-77.416-129.024h-62.914l90.22 140.742h-64.834v40.427h86.609v26.337h-86.609v38.621h86.609v84.808h54.862v-84.808h88.416V554.04h-88.416v-26.337h88.416v-40.427h-64.966l88.416-140.742zM622.333 601.847H675v91.734h-52.667zM622.333 466.132H675v91.736h-52.667zM622.333 330.418H675v91.736h-52.667z" /></svg>