<?xml version="1.0" standalone="no"?><!DOCTYPE svg PUBLIC "-//W3C//DTD SVG 1.1//EN" "http://www.w3.org/Graphics/SVG/1.1/DTD/svg11.dtd"><svg class="icon" width="48px" height="47.95px" viewBox="0 0 1025 1024" version="1.1" xmlns="http://www.w3.org/2000/svg"><path fill="#333333" d="M714.063207 201.364027c-14.88256-9.48888-34.659384-5.193913-44.148264 9.688646L517.293796 449.273508l-158.414358-238.72025c-9.788529-14.682794-29.565353-18.777995-44.248147-8.989466-14.682794 9.788529-18.777995 35.058915-8.989465 49.741709l166.205228 256H347.09325c-17.679282 0-31.962544 14.283262-31.962544 31.962544s14.283262 31.962544 31.962544 31.962544h139.83613v63.925088h-139.83613c-17.679282 0-31.962544 14.283262-31.962544 31.962544s14.283262 31.962544 31.962544 31.962544h139.83613v83.801795c0 17.679282 14.283262 31.962544 31.962544 31.962543s31.962544-14.283262 31.962543-31.962543v-83.801795h126.052283c17.679282 0 31.962544-14.283262 31.962544-31.962544s-14.283262-31.962544-31.962544-31.962544H550.854467v-63.925088h126.052283c17.679282 0 31.962544-14.283262 31.962544-31.962544s-14.283262-31.962544-31.962544-31.962544h-113.866563l160.811549-256.399531c9.48888-14.88256 5.09403-40.053063-9.788529-49.541943z"  /><path fill="#333333" d="M895.950059 65.123683c35.258681 0 63.925088 28.666407 63.925087 63.925088v767.101053c0 35.258681-28.666407 63.925088-63.925087 63.925088H128.849005c-35.258681 0-63.925088-28.666407-63.925088-63.925088v-767.101053c0-35.258681 28.666407-63.925088 63.925088-63.925088h767.101054m0-63.925088H128.849005C58.531409 1.198595 0.998829 58.731174 0.998829 129.048771v767.101053c0 70.317597 57.532579 127.850176 127.850176 127.850176h767.101054c70.317597 0 127.850176-57.532579 127.850175-127.850176v-767.101053c0-70.317597-57.532579-127.850176-127.850175-127.850176z"  /></svg>